<mxfile host="e5s">
  <diagram id="PfE" name="Horizontal">
    <mxGraphModel dx="0" dy="0" background="#FFFACD" grid="0" gridSize="10" guides="1" tooltips="1" connect="1" arrows="1" fold="1" page="1" pageScale="1" pageWidth="1169" pageHeight="827" math="0" shadow="0">
      <root>
        <mxCell id="PfE-A"/>
        <mxCell id="PfE-B" parent="PfE-A"/>
        <mxCell id="PfE-2" value="01" style="double=1;ellipse;whiteSpace=wrap;html=1;fillColor=#f5f5f5;strokeColor=#666666;fontColor=#333333" vertex="1" parent="PfE-B">
          <mxGeometry x="30" y="30" width="160" height="160" as="geometry"/>
        </mxCell>
        <mxCell id="PfE-3" value="02" style="whiteSpace=wrap;html=1;fillColor=#f5f5f5;strokeColor=#666666;fontColor=#333333" vertex="1" parent="PfE-B">
          <mxGeometry x="250" y="30" width="160" height="160" as="geometry"/>
        </mxCell>
        <mxCell id="PfE-4" value="03" style="double=1;ellipse;whiteSpace=wrap;html=1;fillColor=#f5f5f5;strokeColor=#666666;fontColor=#333333" vertex="1" parent="PfE-B">
          <mxGeometry x="470" y="30" width="160" height="160" as="geometry"/>
        </mxCell>
        <mxCell id="PfE-5" value="04" style="whiteSpace=wrap;html=1;fillColor=#f5f5f5;strokeColor=#666666;fontColor=#333333" vertex="1" parent="PfE-B">
          <mxGeometry x="30" y="250" width="160" height="160" as="geometry"/>
        </mxCell>
        <mxCell id="PfE-6" value="05" style="double=1;ellipse;whiteSpace=wrap;html=1;fillColor=#f5f5f5;strokeColor=#666666;fontColor=#333333" vertex="1" parent="PfE-B">
          <mxGeometry x="250" y="250" width="160" height="160" as="geometry"/>
        </mxCell>
        <mxCell id="PfE-7" value="06" style="whiteSpace=wrap;html=1;fillColor=#f5f5f5;strokeColor=#666666;fontColor=#333333" vertex="1" parent="PfE-B">
          <mxGeometry x="470" y="250" width="160" height="160" as="geometry"/>
        </mxCell>
        <mxCell id="PfE-8" value="07" style="double=1;ellipse;whiteSpace=wrap;html=1;fillColor=#f5f5f5;strokeColor=#666666;fontColor=#333333" vertex="1" parent="PfE-B">
          <mxGeometry x="30" y="470" width="160" height="160" as="geometry"/>
        </mxCell>
      </root>
    </mxGraphModel>
  </diagram>
  <diagram id="9HQ" name="Vertical">
    <mxGraphModel dx="0" dy="0" background="#FFFACD" grid="0" gridSize="10" guides="1" tooltips="1" connect="1" arrows="1" fold="1" page="1" pageScale="1" pageWidth="1169" pageHeight="827" math="0" shadow="0">
      <root>
        <mxCell id="9HQ-A"/>
        <mxCell id="9HQ-B" parent="9HQ-A"/>
        <mxCell id="9HQ-2" value="01" style="double=1;ellipse;whiteSpace=wrap;html=1;fillColor=#f5f5f5;strokeColor=#666666;fontColor=#333333" vertex="1" parent="9HQ-B">
          <mxGeometry x="30" y="30" width="160" height="160" as="geometry"/>
        </mxCell>
        <mxCell id="9HQ-3" value="02" style="whiteSpace=wrap;html=1;fillColor=#f5f5f5;strokeColor=#666666;fontColor=#333333" vertex="1" parent="9HQ-B">
          <mxGeometry x="30" y="250" width="160" height="160" as="geometry"/>
        </mxCell>
        <mxCell id="9HQ-4" value="03" style="double=1;ellipse;whiteSpace=wrap;html=1;fillColor=#f5f5f5;strokeColor=#666666;fontColor=#333333" vertex="1" parent="9HQ-B">
          <mxGeometry x="30" y="470" width="160" height="160" as="geometry"/>
        </mxCell>
        <mxCell id="9HQ-5" value="04" style="whiteSpace=wrap;html=1;fillColor=#f5f5f5;strokeColor=#666666;fontColor=#333333" vertex="1" parent="9HQ-B">
          <mxGeometry x="250" y="30" width="160" height="160" as="geometry"/>
        </mxCell>
        <mxCell id="9HQ-6" value="05" style="double=1;ellipse;whiteSpace=wrap;html=1;fillColor=#f5f5f5;strokeColor=#666666;fontColor=#333333" vertex="1" parent="9HQ-B">
          <mxGeometry x="250" y="250" width="160" height="160" as="geometry"/>
        </mxCell>
        <mxCell id="9HQ-7" value="06" style="whiteSpace=wrap;html=1;fillColor=#f5f5f5;strokeColor=#666666;fontColor=#333333" vertex="1" parent="9HQ-B">
          <mxGeometry x="250" y="470" width="160" height="160" as="geometry"/>
        </mxCell>
        <mxCell id="9HQ-8" value="07" style="double=1;ellipse;whiteSpace=wrap;html=1;fillColor=#f5f5f5;strokeColor=#666666;fontColor=#333333" vertex="1" parent="9HQ-B">
          <mxGeometry x="470" y="30" width="160" height="160" as="geometry"/>
        </mxCell>
      </root>
    </mxGraphModel>
  </diagram>
</mxfile>